<svg xmlns="http://www.w3.org/2000/svg" width="210.295" height="37.185" viewBox="0 0 210.295 37.185">
  <g id="그룹_6" data-name="그룹 6" transform="translate(-94.976 -528.866)">
    <g id="그룹_1" data-name="그룹 1" transform="translate(131.428 528.866)">
      <path id="패스_1" data-name="패스 1" d="M178.753,536.446v8.239h17.2v7.348h-17.2v3.841h-7.9V529.1h25.105v7.348Zm17.2,22.378v7.348H170.849v-7.348h25.105Z" transform="translate(-170.849 -528.986)" fill="#fefefe"/>
      <path id="패스_2" data-name="패스 2" d="M255.825,553.916,262.783,566H253.71l-6.179-10.744h-5.4v10.8h-7.9V547.625h15.642a5.542,5.542,0,1,0,0-11.078h-7.737v7.96h-7.9V528.866h15.642a13.464,13.464,0,0,1,13.639,13.193A13.076,13.076,0,0,1,255.825,553.916Z" transform="translate(-203.778 -528.866)" fill="#fefefe"/>
      <path id="패스_3" data-name="패스 3" d="M335.1,528.866v7.626H303.979v-7.626ZM315.613,566V539.554h7.9V566Z" transform="translate(-240.019 -528.866)" fill="#fefefe"/>
      <path id="패스_4" data-name="패스 4" d="M379.871,566V528.866h7.9V566Z" transform="translate(-279.45 -528.866)" fill="#fefefe"/>
      <path id="패스_5" data-name="패스 5" d="M415.351,547.635c0,6.179,5.455,11.189,12.135,11.189h9.686v7.348h-9.686a21.044,21.044,0,0,1-14.195-5.4,17.786,17.786,0,0,1-5.845-13.137,17.579,17.579,0,0,1,5.845-13.082,20.829,20.829,0,0,1,14.195-5.455h9.686v7.348h-9.686C420.807,536.446,415.351,541.456,415.351,547.635Z" transform="translate(-293.777 -528.986)" fill="#fefefe"/>
      <path id="패스_6" data-name="패스 6" d="M488.346,536.446v8.239h17.2v7.348h-17.2v3.841h-7.9V529.1h25.105v7.348Zm17.2,22.378v7.348H480.441v-7.348h25.105Z" transform="translate(-331.703 -528.986)" fill="#fefefe"/>
    </g>
    <g id="그룹_2" data-name="그룹 2" transform="translate(94.976 529.251)">
      <path id="패스_7" data-name="패스 7" d="M124.713,535.4l1.821-5.73h-8.276l-7.614,24-7.448-24H94.976l11.421,36.8h2.549L119.6,535.4Z" transform="translate(-94.976 -529.667)" fill="#c43227"/>
      <path id="패스_8" data-name="패스 8" d="M141.071,548.507l-8.779,27.749h1.934l8.82-27.749Z" transform="translate(-114.364 -539.455)" fill="#c43227"/>
    </g>
  </g>
</svg>
